<svg id="Layer_1" data-name="Layer 1" xmlns="http://www.w3.org/2000/svg" viewBox="0 0 48 48"><defs><style>.cls-2{fill:none}.cls-3{fill:#fff}.cls-4{fill:#024263}</style></defs><path d="M47.31 3.43A1.42 1.42 0 0045.88 2H23.73a1.41 1.41 0 00-1.42 1.41V20c0 1.1 6.77 5.78 2 16h21.57a1.41 1.41 0 001.42-1.41c0-5.59 0-26.19.01-31.16z" fill="#7fd7cf" fill-rule="evenodd" opacity=".32"/><path class="cls-2" d="M34.31 34.52h-3a.5.5 0 100 1h3a.5.5 0 000-1zM10.28 41.41v3.07a.51.51 0 00.22.43.43.43 0 00.39 0l3.24-1.3 3.12 1.28a.4.4 0 00.4 0 .51.51 0 00.21-.42L17.81 41a13.66 13.66 0 01-7.53.41z"/><path class="cls-2" d="M42.72 5.06H20.84a.91.91 0 00-.9.92v11.66l.3.18a12.91 12.91 0 012.05 20.63 2.79 2.79 0 00.64.07h19.78a.92.92 0 00.91-.93v-.69V5.98a1 1 0 00-.27-.66.89.89 0 00-.63-.26zM29.21 6.85a.5.5 0 01.5-.5h3.87a.5.5 0 01.5.5.5.5 0 01-.5.5h-3.87a.51.51 0 01-.5-.5zm5.1 29.67h-3a1.5 1.5 0 110-3h3a1.5 1.5 0 010 3zm1.14-28.87a.81.81 0 11.81-.8.8.8 0 01-.81.8z"/><path class="cls-3" d="M13.54 40.67A11.89 11.89 0 101.69 28.79a11.88 11.88 0 0011.85 11.88zm0-21.54a9.66 9.66 0 11-9.63 9.66 9.66 9.66 0 019.63-9.66z"/><path class="cls-3" d="M13.54 37.44a8.66 8.66 0 10-8.63-8.65 8.65 8.65 0 008.63 8.65z"/><path class="cls-4" d="M34.31 33.52h-3a1.5 1.5 0 100 3h3a1.5 1.5 0 000-3zm0 2h-3a.5.5 0 110-1h3a.5.5 0 010 1zM35.45 6a.81.81 0 10.81.81.8.8 0 00-.81-.81zM34.08 6.85a.5.5 0 00-.5-.5h-3.87a.5.5 0 00-.5.5.51.51 0 00.5.5h3.87a.5.5 0 00.5-.5z"/><path class="cls-4" d="M44.62 6a1.93 1.93 0 00-.56-1.37 1.89 1.89 0 00-1.34-.56H20.84A1.91 1.91 0 0018.94 6v11.12a12.72 12.72 0 00-5.4-1.22 12.88 12.88 0 00-4.26 25v3.55a1.47 1.47 0 00.66 1.25 1.42 1.42 0 001.33.15l2.86-1.15 2.74 1.13a1.4 1.4 0 001.33-.14 1.47 1.47 0 00.66-1.26l-.06-3.94a13.29 13.29 0 002.39-1.41 3.9 3.9 0 001.74.41h19.79a1.93 1.93 0 001.9-1.93v-.66c0-6.49-.01-26.06 0-30.9zM13.54 16.9A11.89 11.89 0 111.69 28.79 11.89 11.89 0 0113.54 16.9zm4.11 28a.4.4 0 01-.4 0l-3.12-1.28L10.89 45a.43.43 0 01-.39 0 .51.51 0 01-.22-.43v-3.16a13.66 13.66 0 007.53-.41l.05 3.48a.51.51 0 01-.21.41zM43.62 6V37.59a.92.92 0 01-.91.93H22.93a2.79 2.79 0 01-.64-.07 12.91 12.91 0 00-2.05-20.63l-.3-.18V6a.91.91 0 01.9-.92h21.88a.89.89 0 01.63.26 1 1 0 01.27.66z"/><path class="cls-4" d="M13.54 38.44a9.66 9.66 0 10-9.63-9.65 9.65 9.65 0 009.63 9.65zm0-18.31a8.66 8.66 0 11-8.63 8.66 8.66 8.66 0 018.63-8.66z"/><path d="M17.81 41l.05 3.48a.51.51 0 01-.21.42.4.4 0 01-.4 0l-3.12-1.28L10.89 45a.43.43 0 01-.39 0 .51.51 0 01-.22-.43v-3.16a13.66 13.66 0 007.53-.41zm-3.94-16.76a.14.14 0 00-.2.07l-1 2.19a1 1 0 01-.75.56l-2.29.35h-.09a.16.16 0 000 .22l1.66 1.77a1 1 0 01.28.86l-.4 2.45a.16.16 0 000 .1.16.16 0 00.21.06l2-1.12a1 1 0 011 0l2 1.12a.15.15 0 00.09 0 .16.16 0 00.13-.18l-.4-2.45a1 1 0 01.27-.86l1.69-1.73a.18.18 0 000-.09.15.15 0 00-.12-.17l-2.29-.35a1 1 0 01-.66-.54l-1-2.19a.12.12 0 00-.13-.07z" fill="#00afa0"/></svg>