<svg data-name="Layer 1" xmlns="http://www.w3.org/2000/svg" viewBox="0 0 48 48"><path d="M40.5 34.23a1 1 0 11.93-1.82l2 1a16.22 16.22 0 001.06-5.29 21.73 21.73 0 00-1.08-6.72l-2 1a1 1 0 01-.46.11 1 1 0 01-.47-1.93l2.17-1.12c-.2-.44-.4-.89-.63-1.32a20.86 20.86 0 00-9.65-9.28l-1.07 2.28a1 1 0 01-.93.59 1 1 0 01-.44-.1 1 1 0 01-.49-1.36l1-2.17a19.64 19.64 0 00-13.84.31l.83 1.88a1 1 0 01-.43 1.38 1.06 1.06 0 01-.42.09 1 1 0 01-.93-.61l-.83-1.87a21 21 0 00-9.18 9.5l2 .91a1 1 0 01.5 1.36 1 1 0 01-.93.6 1.11 1.11 0 01-.43-.09l-1.93-.89a21.51 21.51 0 00-1.35 7.47 15 15 0 001.23 5.4l2.05-.93a1 1 0 11.85 1.86l-2.06.94A26.79 26.79 0 009.09 41h30.18a22 22 0 003.41-5.61z" fill="#f7c991"/><path d="M43.76 20.34l-7.2 3.21a2 2 0 00-1.22 1.87v3.72A2 2 0 0036.52 31l7.3 3.42a18.43 18.43 0 001.32-7 21.14 21.14 0 00-1.38-7.08z" fill-rule="evenodd" fill="#7fd7cf"/><path d="M45 19.62a23.3 23.3 0 00-1.08-2.39c-.36-.69-.76-1.37-1.18-2A22.39 22.39 0 0024 5C11.56 5 1.44 15.37 1.44 28.14c0 6 5.66 14.65 7.15 14.85h30.93c2 0 7-9 7-14.86A23.5 23.5 0 0045 19.62zM39.27 41H9.09a26.79 26.79 0 01-3.53-5.55l2.06-.94a1 1 0 10-.85-1.86l-2 .93a15 15 0 01-1.23-5.4 21.51 21.51 0 011.35-7.47l1.93.89a1.11 1.11 0 00.43.09 1 1 0 00.93-.6 1 1 0 00-.5-1.36l-2-.91a21 21 0 019.18-9.5l.83 1.87a1 1 0 00.93.61 1.06 1.06 0 00.42-.09 1 1 0 00.52-1.35l-.83-1.88a19.64 19.64 0 0113.84-.31l-1 2.17a1 1 0 00.43 1.32 1 1 0 00.44.1 1 1 0 00.93-.59l1.07-2.28a20.86 20.86 0 019.65 9.28c.23.43.43.88.63 1.32l-2.17 1.12a1 1 0 00.45 1.93 1 1 0 00.46-.11l2-1a21.73 21.73 0 011.08 6.72 16.22 16.22 0 01-1.06 5.29l-2-1a1 1 0 10-.93 1.82l2.18 1.11A22 22 0 0139.27 41z" fill="#ef9526"/><path d="M38.29 29.6H38c-.14 0-.32 0-.31-.2s.2-.19.33-.17a1.22 1.22 0 001.28-.55c.26-.38 0-.81.28-1.16.05-.07-.13-.09-.22-.09h-.84c-.12 0-.25 0-.26-.15s.14-.13.24-.13h.94c.37 0 1-.86.79-1.18a.38.38 0 00-.56-.14c-.22.14-.44.31-.65.47s-.3.16-.38 0-.28-.48-.62-.49a.15.15 0 010-.12c0-.08.08-.1.14-.09a1.79 1.79 0 001.42-.45c.13-.1.36 0 .55 0 .66.19 1.32.35 2 .55.26.09.37 0 .43-.23a3.18 3.18 0 01.17-.58c.06-.15.18-.29.36-.23a.3.3 0 01.2.41c-.12.37-.21.76-.34 1.13s-.42.29-.67.17c-.44-.21-.65-.08-.72.39a2.49 2.49 0 01-.2.58c-.14.3-.26.52.27.55.36 0 .39.39.28.67-.22.54-.48 1.06-.73 1.58a.4.4 0 01-.58.24.41.41 0 01-.18-.6l.3-.69c0-.11.17-.24 0-.34a.35.35 0 00-.4 0 1.18 1.18 0 00-.18.21 10.22 10.22 0 01-1.8 1.86c-.28.24-.59.15-.72-.24 0-.15-.06-.3-.28-.29s-.26 0-.24-.15.19-.15.31-.13a.91.91 0 001-.47m-23 2.45A10.08 10.08 0 0117 19.56a10.24 10.24 0 0110.7-2 11.48 11.48 0 014.28 2.86 1.75 1.75 0 01.43.74c.07.41-1.14 1.51-1.43 1.52-.5 0-.65 0-1-.37a8.61 8.61 0 00-1.05-1A8.73 8.73 0 0015.45 32m8.92-1l.17-.05 4.22-1.15c2.45-.67 3.89-1.06 4.72-1.35h.06c1.11-.4 1.08-.62 1-1.13l-.11-.89h-.9c-2.67 0-9.59-.7-9.66-.71h-.26a3.39 3.39 0 00-2.1 1.28 2.37 2.37 0 00-.43 1.82 2.76 2.76 0 002.69 2.24 2.46 2.46 0 00.6-.06zm3-2.95c-2.24.61-3.12.85-3.49 1a.65.65 0 01-.49-.11.63.63 0 01-.29-.43s0-.12.08-.27a1.38 1.38 0 01.69-.47zm13.42-4.54h-.7c-.23 0-.26 0-.26.18s.15.14.24.14h.48c.07 0 .17 0 .17.1s0 .22-.07.23c-.69.26-.23.35 0 .5.06 0 .09.18.15.25a.84.84 0 001.07.16.83.83 0 00.36-.93.86.86 0 00-.87-.64c-.16.02-.36.03-.57.03z" fill="#0b2e40" fill-rule="evenodd"/></svg>