<svg id="Layer_1" data-name="Layer 1" xmlns="http://www.w3.org/2000/svg" viewBox="0 0 48 48"><defs><style>.cls-2{fill:#00afa0}</style></defs><path d="M17.93 19.17C20.3 28.76 28.61 39 31.62 42.05a1.53 1.53 0 002.18 0c3-3.18 11.58-13.78 13.66-22.87 5.01-23.76-34.22-23.76-29.53-.01z" fill="#7fd7cf" fill-rule="evenodd" opacity=".32"/><path class="cls-2" d="M23.52 44.84a.91.91 0 11-.91-.89.9.9 0 01.91.89zM7.93 44a.89.89 0 10.91.89.9.9 0 00-.91-.89z"/><path d="M21.33 32.55a5.12 5.12 0 11-5.12-5.12 5.12 5.12 0 015.12 5.12zm8.59 11.79v-1.51c0-2.75-1.75-3.1-3.7-3.23h-1v-.45c0-.05-.52-5-3.05-6.25h-.34a5.71 5.71 0 01-11.32.59c-2.07 1.5-2.4 4.77-2.4 4.81v.46H4.85c-3.21 0-3.7 3.79-3.72 3.95v1.86h3.03a3.72 3.72 0 017.43 0h7.19a3.72 3.72 0 017.43 0z" fill="#fff"/><path d="M29.6 11.34a6.77 6.77 0 106.66 6.77 6.72 6.72 0 00-6.66-6.77zm0 12.54a5.77 5.77 0 115.66-5.77 5.72 5.72 0 01-5.66 5.77zM22.61 43a1.81 1.81 0 101.83 1.81A1.82 1.82 0 0022.61 43zm0 2.69a.89.89 0 11.91-.88.9.9 0 01-.91.91zM7.93 43a1.81 1.81 0 101.83 1.81A1.82 1.82 0 007.93 43zm0 2.69a.89.89 0 11.91-.88.9.9 0 01-.91.91zM38.22 5.87a15.77 15.77 0 00-17-.06c-4.91 3.21-7 9-5.75 15.91a35.35 35.35 0 001.72 5.35 5.49 5.49 0 00-1.08-.07 5.66 5.66 0 00-5.69 5.34C8 33.61 7.33 36.57 7.14 37.71h-2.3c-3.26 0-4.5 3.17-4.7 4.88v1.91a1 1 0 00.29.73 1 1 0 00.73.31h4.11L5.19 45a2.33 2.33 0 010-.38 2.72 2.72 0 015.44 0 2.22 2.22 0 010 .37l-.08.58h9.4l-.08-.57v-.36a2.72 2.72 0 015.43 0v.35l-.09.59 4.18-.15h.3a2 2 0 00.43-.06h.09c.51 0 .7-.22.77-.49l.09-.08c2.67-3 10.74-13.73 12.71-23.05S41 7.77 38.22 5.87zM16.11 28a4.61 4.61 0 11-4.71 4.61A4.67 4.67 0 0116.11 28zm6.38 13a3.68 3.68 0 00-3.71 3.58h-7.19a3.72 3.72 0 00-7.43 0H1.1v-1.86c0-.16.51-3.94 3.72-4H8v-.45s.33-3.32 2.4-4.81a5.71 5.71 0 0011.32-.6h.34c2.53 1.2 3.05 6.19 3.05 6.24v.46h1c2 .13 3.71.48 3.71 3.24v1.5l-3.71.14a3.69 3.69 0 00-3.62-3.51zM42.7 21.52c-1.78 8.4-8.67 18-11.78 21.77v-.45c0-3.92-3.13-4.13-4.64-4.24h-.15c-.2-1.37-1-5.47-3.64-6.64h-.14l-.59-.07a5.66 5.66 0 00-3.32-4.35 34.85 34.85 0 01-2-6c-1.61-8.88 2.64-13.14 5.32-14.89a14.73 14.73 0 0115.9 0C42.18 9.74 44 15 42.7 21.52z" fill="#024263"/><path class="cls-2" d="M18.18 31h-1.41v-.5h1.41a.41.41 0 000-.81h-4a.41.41 0 000 .81H16v.5h-1.81a.4.4 0 100 .8H16v.59h-1.66a.48.48 0 00-.43.28l-.1.32 3.19 3.2a.43.43 0 00.28.11.4.4 0 00.29-.12.41.41 0 000-.57l-2.44-2.38H16a.78.78 0 00.78-.77v-.62h1.41a.4.4 0 000-.8z"/></svg>