<svg id="Layer_1" data-name="Layer 1" xmlns="http://www.w3.org/2000/svg" viewBox="0 0 48 48"><defs><style>.cls-2{fill:none}.cls-3{fill:#f7c991}.cls-4{fill:#ef9526}.cls-5{fill:#024263}</style></defs><path d="M29.53 11.26a1 1 0 01-.16-.26.85.85 0 01.18-.86L31.76 8a.63.63 0 01.51-.21.7.7 0 01.51.23l12.14 13.2a.81.81 0 01.17.28.84.84 0 01-.19.84l-2.2 2.17a.69.69 0 01-.52.21.73.73 0 01-.51-.23zM5.28 24.49a.77.77 0 001.07 0l.36-.37.63-.65 11.73-12.08a.83.83 0 00.23-.57.85.85 0 00-.23-.58L16.88 8a.78.78 0 00-.54-.23.76.76 0 00-.53.23L3.09 21.08a.84.84 0 00-.23.6.83.83 0 00.23.55z" fill="#fff"/><path class="cls-2" d="M23.86 18.34l.43.44 5.55-5.34 1 1-1.5-1.64v.1zM19.3 10.82a.85.85 0 00-.23-.58L16.88 8a.78.78 0 00-.54-.23.76.76 0 00-.53.23L3.09 21.08a.84.84 0 00-.23.6.81.81 0 00.23.57l2.2 2.26a.74.74 0 001.06 0l.36-.37.63-.65 11.74-12.08a.87.87 0 00.22-.59zM44.92 21.22L32.78 8a.7.7 0 00-.51-.23.66.66 0 00-.51.2l-2.21 2.18a.85.85 0 00-.18.86 1 1 0 00.16.28l12.15 13.22a.74.74 0 00.51.23.67.67 0 00.51-.21l2.2-2.17a.83.83 0 00.19-.86.81.81 0 00-.17-.28z"/><path class="cls-3" d="M33.56 32.68a1.59 1.59 0 00.86-.68 1.78 1.78 0 00-.25-2.31 2.75 2.75 0 01.2 1 2.72 2.72 0 01-.81 1.99zM22.57 40.44L7.46 25.1l.15-.16-.15.16c-.43.48.38 1.44.87 1.89l14.45 13.9a2.61 2.61 0 002.57.3l.5-.87a2.58 2.58 0 01-1.7.65 2.66 2.66 0 01-1.58-.53zM29.29 35.88a1.1 1.1 0 010 .25 3 3 0 002.1-.62.92.92 0 00.17-.22 2.51 2.51 0 01-1.69.67 2.47 2.47 0 01-.58-.08z"/><path class="cls-3" d="M24.15 39.77a1.45 1.45 0 001.33-.91l-.2-.11a.59.59 0 01.19-1.1 1.21 1.21 0 00-.09-.2l-4.48-4.58a.6.6 0 01.86-.84l4.52 4.63.08.09a2.78 2.78 0 01.42 1.11 1.64 1.64 0 001.35-1.59 2.59 2.59 0 00-.33-1.19.63.63 0 01-.1-.29l-3.82-4a.6.6 0 010-.85.61.61 0 01.85 0L29 34.45a1.33 1.33 0 00.86.31 1.42 1.42 0 001.38-1.35 2.57 2.57 0 01-1.38-.76l-4.24-4.85a.6.6 0 01.9-.79l4.25 4.83a1.7 1.7 0 00.3.23.6.6 0 01.16-.72.6.6 0 01.85.09 1.73 1.73 0 01.29.65 1.57 1.57 0 00.37-2.45l-6.25-7.45A.64.64 0 0026 22a.66.66 0 00-.46.2L22 25.94a2.69 2.69 0 01-2 1 2.66 2.66 0 01-2.56-2.75 2.53 2.53 0 01.91-2L23 17.48c-1.32-1.33-2.6-2.59-3.85-3.76L8.31 24.26l15.05 15.28a1.45 1.45 0 00.79.23zM26.67 39.07a1.8 1.8 0 01-.08.21 4.09 4.09 0 002.06-.64 1.72 1.72 0 00.44-1.27 2.83 2.83 0 01-2.42 1.7z"/><path class="cls-3" d="M39.15 23.53l-8.32-9.06-1-1-5.55 5.34-.43-.44L19.17 23a1.36 1.36 0 00-.56 1.18A1.46 1.46 0 0020 25.74c.43 0 .62-.16 1.16-.67l.25-.23 3.32-3.5a1.81 1.81 0 011.37-.58 1.87 1.87 0 011.34.66l.33.4A1.31 1.31 0 0128 22l6.56 7.33-.56-.66z"/><path class="cls-4" d="M39.15 23.53l-5.18 5.14.64.65.21.2 5.14-5.11-.81-.88zM26.07 20.76a1.81 1.81 0 00-1.37.58l-3.32 3.5-.25.23c-.54.51-.73.67-1.16.67a1.46 1.46 0 01-1.36-1.55 1.36 1.36 0 01.56-1.19l4.69-4.67 5.42-5.41v-.1l-.24-.26-.24-.26-.2-.22a1 1 0 01-.08-.11l-.13.1-4.52 4.5-4.17-4.14-.84.86 4.16 4.13-.05.05-4.7 4.68a2.53 2.53 0 00-.91 2A2.66 2.66 0 0020 26.94a2.69 2.69 0 002-1l3.61-3.78A.66.66 0 0126 22a.64.64 0 01.46.23l6.25 7.45a1.57 1.57 0 01-.37 2.45 1.73 1.73 0 00-.29-.65.6.6 0 00-.85-.09.6.6 0 00-.16.72 1.7 1.7 0 01-.3-.23L26.52 27a.6.6 0 00-.9.79l4.27 4.85a2.57 2.57 0 001.38.76 1.42 1.42 0 01-1.38 1.35 1.33 1.33 0 01-.86-.31l-4.28-4.51a.61.61 0 00-.85 0 .6.6 0 000 .85l3.82 4a.63.63 0 00.1.29 2.59 2.59 0 01.33 1.19 1.64 1.64 0 01-1.35 1.59 2.78 2.78 0 00-.42-1.11l-.08-.09L21.76 32a.6.6 0 00-.86.84l4.48 4.58a1.21 1.21 0 01.09.2.59.59 0 00-.19 1.1l.2.11a1.44 1.44 0 01-2.12.68l-15-15.28-.68.7-.15.16 15.04 15.35a2.66 2.66 0 001.58.53 2.58 2.58 0 001.7-.65 2.75 2.75 0 00.74-1 1.8 1.8 0 00.08-.21 2.83 2.83 0 002.42-1.7 2.72 2.72 0 00.24-1.1.78.78 0 000-.14 1.1 1.1 0 000-.25 2.47 2.47 0 00.6.08 2.51 2.51 0 001.69-.67 2.77 2.77 0 00.89-1.95 2.73 2.73 0 001.9-2.61 2.75 2.75 0 00-.2-1 2.68 2.68 0 00-.54-.85l-5.89-7-.33-.4a1.87 1.87 0 00-1.38-.76z"/><path class="cls-5" d="M45.81 20.43L33.67 7.2a1.89 1.89 0 00-1.37-.62 1.84 1.84 0 00-1.38.55l-2.2 2.17a2 2 0 00-.15 2.7 1 1 0 00.08.11l.2.22.24.26.24.26 1.5 1.64 8.32 9.06.81.88.83.91a1.91 1.91 0 001.37.62 1.91 1.91 0 001.34-.55l2.21-2.18a2 2 0 00.1-2.8zm-.91 1.93l-2.2 2.17a.67.67 0 01-.51.21.74.74 0 01-.51-.23L29.53 11.28a1 1 0 01-.16-.28.85.85 0 01.18-.86L31.76 8a.66.66 0 01.51-.2.7.7 0 01.51.23l12.14 13.19a.81.81 0 01.17.28.83.83 0 01-.19.86zM7.61 24.94l.68-.7L18.91 13.3l.84-.86.19-.19a2 2 0 000-2.82l-2.2-2.26a1.92 1.92 0 00-1.39-.59 1.94 1.94 0 00-1.4.59L2.23 20.27a2 2 0 000 2.82l2.2 2.26a1.93 1.93 0 002.78 0l.22-.22zm-.9-.8l-.36.37a.74.74 0 01-1.06 0l-2.2-2.26a.81.81 0 01-.23-.57.84.84 0 01.23-.6L15.81 8a.76.76 0 01.53-.23.78.78 0 01.54.23l2.19 2.26a.85.85 0 01.23.58.87.87 0 01-.22.59L7.34 23.49z"/></svg>