<svg id="Layer_1" data-name="Layer 1" xmlns="http://www.w3.org/2000/svg" viewBox="0 0 48 48"><defs><style>.cls-2{fill:#024263}.cls-3{fill:#f7c991}.cls-4{fill:#ef9526}.cls-5{fill:#a6e4de}</style></defs><path d="M32.33 39.81a7.6 7.6 0 007.15-7.57v-8.46h-7.15z" fill="#7fd7cf"/><path class="cls-2" d="M40.69 21.62a2.13 2.13 0 01-.45 1.3h-1.72a1.31 1.31 0 001.3-1.3V19a1.31 1.31 0 00-1.3-1.3H32a1.3 1.3 0 00-1.3 1.3v2.66a1.3 1.3 0 001.3 1.3h-.51v.8a2.17 2.17 0 01-1.66-2.1V19A2.17 2.17 0 0132 16.8h6.55a2.17 2.17 0 012.14 2.2zm-2.17 1.3h1.82v9.32a8.47 8.47 0 01-8.45 8.45h-.43V22.92h7.06zm0 .86h-6.19v16a7.6 7.6 0 007.15-7.57v-8.43z"/><path class="cls-3" d="M43.49 41h-4a.67.67 0 01-.65-.61.63.63 0 01.5-.7 1.18 1.18 0 01.34 0h4.21a.4.4 0 00.29-.09.36.36 0 00.09-.26c0-.09 0-.3-.37-.31h-4.21a.84.84 0 01-.62-.21.73.73 0 010-1 .84.84 0 01.64-.2H43.51a.3.3 0 00.31-.27.34.34 0 00-.08-.21.29.29 0 00-.22-.11c-.37 0-3.46-.05-4.12-.05a.69.69 0 01-.52-.19.61.61 0 01-.17-.45.56.56 0 01.17-.43.71.71 0 01.51-.18h2.88a.18.18 0 00.14-.08v-.09c0-.04-.26-.16-.66-.13h-3.89c-1.88 0-4.21-.06-4.5 0a3.75 3.75 0 00-1.1.31v5.33l.07.06.84.75 2.1 1.86L36.76 45a.74.74 0 00.48.22.23.23 0 00.16-.08.31.31 0 00-.06-.43C34.91 42.45 35 42.27 35.13 42a.74.74 0 01.77-.4h7.59c.24 0 .48 0 .48-.27s-.4-.33-.48-.33z"/><path class="cls-4" d="M45.19 39.27a1.12 1.12 0 00-.86-1.11 1.15 1.15 0 00.4-.8 1.2 1.2 0 00-1.13-1.24h-.43a1 1 0 000-.93c-.13-.26-.49-.7-1.5-.64h-8.49a3.81 3.81 0 00-1.63.55l-.2.13v.92c0 1.68 0 3.42-.05 5.12l-.06.36.37.07.89.79 2.11 1.87 1.53 1.35a1.55 1.55 0 001 .44h.08a1.07 1.07 0 00.77-.39 1.15 1.15 0 00-.14-1.61c-.68-.64-1.3-1.26-1.66-1.66h7.24a1.21 1.21 0 001.33-1.13 1.13 1.13 0 00-.43-.9 1.14 1.14 0 00.78-1.15zm-1.7 2.31H35.9a.74.74 0 00-.77.4c-.14.29-.22.47 2.21 2.76a.31.31 0 01.06.43.23.23 0 01-.16.08.74.74 0 01-.48-.22l-1.54-1.36-2.1-1.86-.84-.75-.07-.06c.06-1.63 0-3.29 0-4.89v-.44a3.75 3.75 0 011.1-.31h8.39c.4 0 .61.05.66.13s0 .11 0 .09a.18.18 0 01-.14.08h-2.88a.71.71 0 00-.51.18.56.56 0 00-.17.43.61.61 0 00.17.45.69.69 0 00.52.19c.66 0 3.75 0 4.12.05a.29.29 0 01.22.11.34.34 0 01.08.21.3.3 0 01-.31.27H39.66a.84.84 0 00-.64.2.73.73 0 000 1 .84.84 0 00.62.21L44 39c.36 0 .37.22.37.31a.36.36 0 01-.09.26.4.4 0 01-.29.09h-4.21a1.18 1.18 0 00-.34 0 .63.63 0 00-.5.7.67.67 0 00.65.61h4c.08 0 .48 0 .48.33s-.47.28-.58.28z"/><path class="cls-5" d="M15.46 35.34a6.58 6.58 0 00-6.55 6.13h16.23v-6.13z"/><path class="cls-2" d="M30 33.6h-2.69a2.16 2.16 0 00-1.73.88H15.46A7.44 7.44 0 008 41.9v.44h17.58a2.15 2.15 0 001.73.87H30A2.17 2.17 0 0032.21 41v-5.23A2.17 2.17 0 0030 33.6zm-4.9 2.17v5.7H8.91a6.58 6.58 0 016.55-6.13h9.68zM31.34 41A1.31 1.31 0 0130 42.35h-2.69A1.31 1.31 0 0126 41v-5.23a1.3 1.3 0 011.3-1.3H30a1.3 1.3 0 011.3 1.3z"/><path class="cls-3" d="M14.47 34.56H9.11l-.06.07-.74.84c-.36.39-1.16 1.3-1.89 2.13l-1.34 1.5a.74.74 0 00-.21.48.22.22 0 00.13.12.31.31 0 00.43-.06c2.29-2.43 2.47-2.35 2.77-2.21a.76.76 0 01.39.78v7.58c0 .24 0 .48.27.48.31 0 .33-.39.33-.47 0-.25 0-3.67.05-4a.65.65 0 01.6-.65h.08a.64.64 0 01.62.5 1.22 1.22 0 010 .34c0 1-.05 3.82 0 4.21a.44.44 0 00.1.3.31.31 0 00.25.08c.09 0 .3 0 .31-.37s0-3.2 0-4.21a.86.86 0 01.22-.62.66.66 0 01.49-.19.66.66 0 01.49.19.86.86 0 01.2.64v3.79a.28.28 0 00.26.31.29.29 0 00.22-.08.32.32 0 00.1-.22c0-.37 0-3.48.06-4.11a.75.75 0 01.18-.53.56.56 0 01.45-.17.6.6 0 01.44.18.65.65 0 01.17.51v2.87a.24.24 0 00.09.15h.09c.09 0 .15-.26.13-.66v-3.9c0-1.87.06-4.21 0-4.5a3.84 3.84 0 00-.32-1.1z"/><path class="cls-4" d="M15.64 35.53a4 4 0 00-.56-1.64L15 33.7h-1c-1.68 0-3.42 0-5.12-.06l-.36-.06-.03.42-.8.9L5.8 37l-1.33 1.5A1.52 1.52 0 004 39.61a1.07 1.07 0 00.39.76A1.15 1.15 0 006 40.23c.64-.67 1.26-1.29 1.66-1.66v7.24c0 .79.48 1.33 1.14 1.33a1.12 1.12 0 00.89-.42 1.15 1.15 0 001.13.77 1.12 1.12 0 001.18-.86 1.15 1.15 0 00.8.4 1.21 1.21 0 00.85-.31 1.16 1.16 0 00.35-.82v-.43a1 1 0 00.93 0c.27-.13.71-.49.64-1.5v-3.83c.1-2.63.12-4.27.07-4.61zm-.88 4.63v3.9c0 .4-.06.6-.13.66s-.11 0-.09 0a.24.24 0 01-.09-.15V41.7a.65.65 0 00-.17-.51.6.6 0 00-.44-.18.56.56 0 00-.45.17.75.75 0 00-.18.53c0 .63 0 3.74-.06 4.11a.32.32 0 01-.1.22.29.29 0 01-.22.08.28.28 0 01-.26-.31v-1.55-2.24a.86.86 0 00-.2-.64.66.66 0 00-.49-.19.66.66 0 00-.49.19.86.86 0 00-.22.62v4.21c0 .39-.22.37-.31.37a.31.31 0 01-.25-.08.44.44 0 01-.1-.3v-4.21a1.22 1.22 0 000-.34.64.64 0 00-.62-.5h-.08a.65.65 0 00-.6.65c0 .29-.05 3.71-.05 4 0 .08 0 .47-.33.47-.24 0-.27-.37-.27-.48v-7.58a.76.76 0 00-.39-.78c-.3-.14-.48-.22-2.77 2.21a.31.31 0 01-.4.06.22.22 0 01-.07-.16.74.74 0 01.21-.48l1.34-1.5c.73-.83 1.53-1.74 1.89-2.13l.74-.84.06-.07h5.33a3.84 3.84 0 01.31 1.1c.01.38-.02 2.67-.05 4.54z"/><path class="cls-2" d="M16.08 27.89V17.77a7.43 7.43 0 00-7.43-7.43h-.43v17.55a2.14 2.14 0 00-.88 1.72v2.73a2.17 2.17 0 002.17 2.17h5.28A2.17 2.17 0 0017 32.34v-2.73a2.14 2.14 0 00-.92-1.72zm-7-16.67a6.56 6.56 0 016.12 6.55v9.68H9.09zm7 21.12a1.3 1.3 0 01-1.3 1.3H9.51a1.3 1.3 0 01-1.3-1.3v-2.73a1.3 1.3 0 011.3-1.3h5.28a1.31 1.31 0 011.3 1.3z"/><path class="cls-5" d="M15.21 17.77a6.56 6.56 0 00-6.12-6.55v16.23h6.12zM31.6 10.07h-9.24v6.13h15.78a6.56 6.56 0 00-6.54-6.13z"/><path class="cls-2" d="M21.49 17.06h.43a2.15 2.15 0 01-1.73.88h-2.72a2.17 2.17 0 01-2.17-2.17v-5.28a2.17 2.17 0 012.17-2.16h2.72a2.14 2.14 0 011.73.87h-.43v1.29a1.3 1.3 0 00-1.3-1.3h-2.72a1.3 1.3 0 00-1.3 1.3v5.28a1.3 1.3 0 001.3 1.3h2.72a1.3 1.3 0 001.3-1.3zm17.54 0H21.49V9.2H31.6a7.44 7.44 0 017.4 7.43zm-.89-.86a6.56 6.56 0 00-6.54-6.13h-9.24v6.13z"/><path class="cls-3" d="M15.24 10.4a3.49 3.49 0 00-1.09-.31H5.76c-.41 0-.62.06-.67.13a.15.15 0 000 .13.23.23 0 00.15 0h2.84a.72.72 0 01.51.18.65.65 0 01.18.44.63.63 0 01-.18.45.72.72 0 01-.52.18c-.64 0-3.75 0-4.12.06a.28.28 0 00-.21.1.27.27 0 00-.08.22c0 .16.1.25.32.26H7.76a.92.92 0 01.64.2.66.66 0 01.19.49.69.69 0 01-.19.5.86.86 0 01-.63.21h-4.2c-.37 0-.37.22-.37.31a.29.29 0 00.08.25.42.42 0 00.3.1h4.21a1.22 1.22 0 01.34 0A.66.66 0 018 15.66l-4 .05c-.08 0-.47 0-.47.33s.37.26.48.27 7 0 7.57 0h.06a.72.72 0 01.72.39c.14.3.23.48-2.2 2.77a.3.3 0 00-.06.43.2.2 0 00.15.07.76.76 0 00.49-.21l1.53-1.36 2.1-1.87.81-.72a.39.39 0 01.1-.08v-4.89zM38.69 9.8V5.74c0-.44-.06-.66-.14-.72a.12.12 0 00-.13 0 .29.29 0 00-.06.17v3a.85.85 0 01-.09.41.6.6 0 01-.53.29.59.59 0 01-.45-.17.73.73 0 01-.19-.54c0-.66 0-3.92-.05-4.3a.37.37 0 00-.12-.25.29.29 0 00-.21-.08.31.31 0 00-.28.35v3.96a.87.87 0 01-.2.65.66.66 0 01-.49.2.86.86 0 01-.5-.2.86.86 0 01-.22-.64V3.48c0-.39-.22-.48-.32-.48a.37.37 0 00-.25.08.48.48 0 00-.11.34v4.4a1.22 1.22 0 010 .34.64.64 0 01-.7.51A.65.65 0 0133 8V3.87c0-.26-.09-.51-.34-.51s-.27.43-.27.52v7.91a.79.79 0 01-.4.8c-.3.14-.48.24-2.81-2.3a.39.39 0 00-.26-.14.27.27 0 00-.18.07.22.22 0 00-.08.18.76.76 0 00.22.52l1.35 1.57 1.93 2.23.74.85.08.1c1.67-.05 3.34-.05 5 0h.46a3.93 3.93 0 00.32-1.16c-.01-.31-.04-2.75-.07-4.71z"/><path class="cls-4" d="M16.17 16c-.06-1.71-.06-3.44-.06-5.12v-.96l-.19-.13a4 4 0 00-1.64-.56c-.34-.05-2 0-4.64 0H5.81c-1-.07-1.39.37-1.51.64a1 1 0 000 .93h-.4a1.16 1.16 0 00-.82.39 1.15 1.15 0 00-.3.84 1.1 1.1 0 00.39.8A1.13 1.13 0 002.32 14a1.16 1.16 0 00.33.86 1.21 1.21 0 00.44.29 1.13 1.13 0 00-.42.89c0 .66.53 1.11 1.33 1.13h7.24c-.37.4-1 1-1.67 1.66a1.15 1.15 0 00-.13 1.61 1.11 1.11 0 00.76.39h.09a1.57 1.57 0 001-.44L12.86 19 15 17.18l.85-.78.37-.07zm-1-.15l-.81.72-2.1 1.87-1.53 1.36a.76.76 0 01-.49.21.2.2 0 01-.15-.07.3.3 0 01.06-.43c2.43-2.29 2.34-2.47 2.2-2.77a.72.72 0 00-.72-.39H4c-.24 0-.48 0-.48-.27s.39-.33.47-.33l4-.05a.66.66 0 00.15-1.3 1.22 1.22 0 00-.34 0H3.59a.42.42 0 01-.3-.1.29.29 0 01-.1-.3c0-.09 0-.3.37-.31h4.2a.86.86 0 00.63-.21.69.69 0 00.19-.5.66.66 0 00-.19-.49.92.92 0 00-.64-.2H5.5L4 12.3c-.22 0-.32-.1-.32-.26a.27.27 0 01.08-.22.28.28 0 01.21-.1c.37 0 3.48-.05 4.12-.06a.72.72 0 00.52-.18.63.63 0 00.15-.48.65.65 0 00-.18-.44.72.72 0 00-.51-.18H5.23a.23.23 0 01-.15 0 .15.15 0 010-.13c0-.07.26-.16.67-.13h3.89c1.87 0 4.21-.06 4.5 0a3.49 3.49 0 011.09.31v5.33a.39.39 0 00-.04.05zM39.56 9.78c0-1.76-.05-3.43 0-4 .06-1.06-.39-1.43-.66-1.56a1 1 0 00-.94.06V3.8a1.23 1.23 0 00-.45-.8 1.2 1.2 0 00-.84-.31 1.16 1.16 0 00-.82.42 1.15 1.15 0 00-1.13-.9 1.21 1.21 0 00-.87.33 1.24 1.24 0 00-.29.48 1.16 1.16 0 00-.91-.44c-.66 0-1.12.55-1.14 1.37v7.59c-.41-.39-1.05-1-1.7-1.75a1.15 1.15 0 00-1.64-.14 1.13 1.13 0 00-.39.78 1.66 1.66 0 00.44 1.16c.2.22.75.86 1.35 1.56l1.93 2.23.8.9.06.37h.38c1.73-.06 3.5-.06 5.2-.06h.94l.13-.19a4.11 4.11 0 00.56-1.7c.05-.42.03-2.13-.01-4.92zm-1.63 5.89h-5l-.08-.1-.74-.85-1.93-2.23L28.86 11a.76.76 0 01-.22-.52.22.22 0 01.08-.18.27.27 0 01.18-.07.39.39 0 01.26.14c2.33 2.54 2.51 2.44 2.81 2.3a.79.79 0 00.4-.8V3.96c0-.09 0-.52.27-.52.25 0 .34.27.34.51S33 7.74 33 8a.65.65 0 00.61.66.64.64 0 00.7-.51 1.22 1.22 0 000-.34v-4.4a.48.48 0 01.11-.34.37.37 0 01.29-.07c.1 0 .31 0 .32.41s0 3.34 0 4.39a.86.86 0 00.22.64.86.86 0 00.5.2.66.66 0 00.49-.2.87.87 0 00.2-.65v-2.3-1.66a.31.31 0 01.28-.35.29.29 0 01.21.08.37.37 0 01.12.25c0 .38.05 3.64.05 4.3a.73.73 0 00.19.54.59.59 0 00.45.17.6.6 0 00.53-.29.85.85 0 00.09-.41v-3a.29.29 0 01.03-.12.12.12 0 01.13 0c.08.06.17.28.14.72v4.06c0 2 .06 4.4 0 4.71a3.93 3.93 0 01-.32 1.16z"/><path d="M38.84 20.78a.48.48 0 01-.48.49.49.49 0 010-1 .48.48 0 01.48.51zM9.75 32.62a.49.49 0 000 1 .49.49 0 000-1z" fill="#066da4"/><path class="cls-2" d="M9.75 31.75a1.36 1.36 0 101.35 1.36 1.35 1.35 0 00-1.35-1.36zm0 1.85a.49.49 0 010-1 .49.49 0 010 1zm28.61-14.18a1.36 1.36 0 101.35 1.36 1.36 1.36 0 00-1.35-1.36zm0 1.85a.49.49 0 010-1 .49.49 0 010 1z"/><path d="M20.54 12.19" fill="none"/><path d="M21.49 11.76v-1.27a1.3 1.3 0 00-1.3-1.3h-2.73a1.31 1.31 0 00-1.3 1.3v5.28a1.3 1.3 0 001.3 1.3h2.73a1.3 1.3 0 001.3-1.3v-2.29M31.35 37v-1.23a1.3 1.3 0 00-1.3-1.3h-2.73a1.31 1.31 0 00-1.3 1.3v5.28a1.3 1.3 0 001.3 1.3h2.73a1.3 1.3 0 001.3-1.3v-2.29m5.49-15.83h1.46a1.35 1.35 0 001.49-1.24V19c0-.72-.44-1.34-1.56-1.35h-6.07a1.37 1.37 0 00-1.5 1.3v2.73a1.31 1.31 0 001.43 1.25h2.72M13.53 33.65h1.27a1.31 1.31 0 001.3-1.3v-2.73a1.3 1.3 0 00-1.3-1.3H9.52a1.3 1.3 0 00-1.3 1.3v2.73a1.3 1.3 0 001.3 1.3h2.29" fill="#fff"/></svg>