<svg data-name="Layer 1" xmlns="http://www.w3.org/2000/svg" viewBox="0 0 48 48"><path d="M41.74 29.34c.33-.35.94-1 .93-1.22-.14-.38-.31-.42-.4-.45-.51-.12-2.23.09-7.26 4.69v.06c0 1.33-1.38 2.41-3.08 2.41a47.77 47.77 0 01-8.6-1.19l.32-1.57a46.92 46.92 0 008.28 1.16c.85 0 1.48-.48 1.48-.81a2.89 2.89 0 00-1.37-.6c-7.15-2-11.92-3.26-14.19-3.61-1.46-.22-4.73 1-7.87 3.34l2.65 5.62.48-.15A16.09 16.09 0 0117.18 36 42.6 42.6 0 0122 37c2.61.59 6.18 1.4 6.89 1.4 4.67 0 11.08-6.82 12.07-8.07.21-.33.5-.69.78-.99z" fill="#f7c991"/><path d="M44.18 27.59a2.12 2.12 0 00-1.52-1.47c-1.16-.29-3.18 0-8.51 4.86a5.46 5.46 0 00-1.68-.7c-7.2-2.06-12-3.29-14.38-3.65s-6.25 1.37-9.6 4.06l-.5.4 3.78 8 .67-.2 1.16-.37a18.15 18.15 0 013.57-1c.36 0 2.53.51 4.44.94A61 61 0 0028.85 40c6 0 13.26-8.6 13.33-8.68a9.63 9.63 0 01.73-.83c.81-.92 1.65-1.83 1.27-2.9zM28.85 38.35c-.71 0-4.28-.81-6.89-1.4a42.6 42.6 0 00-4.78-1A16.09 16.09 0 0013.11 37l-.48.15-2.63-5.6c3.14-2.37 6.41-3.56 7.87-3.34 2.27.35 7 1.57 14.19 3.61a2.89 2.89 0 011.37.6c0 .33-.63.81-1.48.81a46.92 46.92 0 01-8.28-1.16l-.32 1.57a47.77 47.77 0 008.6 1.19c1.7 0 3.08-1.08 3.08-2.41v-.06c5-4.6 6.75-4.81 7.26-4.69.09 0 .26.07.4.45 0 .22-.6.87-.93 1.22s-.57.62-.82.94c-1.01 1.25-7.42 8.07-12.09 8.07z" fill="#ef9526"/><path d="M27.43 18.21a8.57 8.57 0 01-3.59-7.12 6.29 6.29 0 014.8 1.91q1.77 1.89 2.39 6.46a8.16 8.16 0 01-3.6-1.25zm7.49 7.52a10.24 10.24 0 005.52-8.9 10.92 10.92 0 00-7.38 2.36c-1.83 1.58-3.05 4.27-3.69 8.07a14.45 14.45 0 005.55-1.53zm-.57-20A6.16 6.16 0 0031 11.09a6.51 6.51 0 004.43-1.42 7.87 7.87 0 002.21-4.84 8.59 8.59 0 00-3.29.92z" fill="#7fd7cf" fill-rule="evenodd"/><path d="M29.63 27.84a.84.84 0 01-.5-.17.81.81 0 01-.13-1.13c4.22-5.29 7.62-8.42 10.39-9.55a.8.8 0 01.6 1.48c-2.47 1-5.75 4.06-9.74 9.07a.79.79 0 01-.62.3zm1.45-8.1a.8.8 0 00.37-1.07 19.71 19.71 0 00-6.62-7.93.8.8 0 00-.89 1.33A18.15 18.15 0 0130 19.38a.82.82 0 00.72.45.73.73 0 00.36-.09zM32.21 11a10.57 10.57 0 015.34-5.15.8.8 0 10-.71-1.43 12 12 0 00-6.1 6 .8.8 0 00.43 1 .81.81 0 00.31.06.79.79 0 00.73-.48z" fill="#efefef"/><path d="M8.86 38.47L6.15 33a1.15 1.15 0 01-.06-.89 1.18 1.18 0 01.59-.67 1.25 1.25 0 01.5-.11 1.44 1.44 0 00-.54.1 1.17 1.17 0 00-.58.67 1.15 1.15 0 00.06.89l2.71 5.47a1.32 1.32 0 001.17.74 1.33 1.33 0 01-1.14-.73z" fill="none"/><path d="M12.53 36.91l-2.65-5.55a2.93 2.93 0 00-3.83-1.42h-.12a2.76 2.76 0 00-1.4 1.6 2.81 2.81 0 00.14 2.11l2.72 5.47A2.91 2.91 0 0010 40.8a2.82 2.82 0 001.13-.23h.12a2.7 2.7 0 001.28-3.66zm-2 2.19a1.37 1.37 0 01-.52.1 1.32 1.32 0 01-1.22-.74L6.11 33a1.15 1.15 0 01-.06-.89 1.17 1.17 0 01.58-.67 1.44 1.44 0 01.54-.1 1.31 1.31 0 011.24.76l2.66 5.54a1.12 1.12 0 01-.51 1.46z" fill="#024263"/><path d="M8.47 32.06a1.31 1.31 0 00-1.24-.76 1.25 1.25 0 00-.5.11 1.18 1.18 0 00-.59.67 1.15 1.15 0 00.06.89l2.71 5.48a1.33 1.33 0 001.09.75 1.37 1.37 0 00.52-.1 1.12 1.12 0 00.57-1.5z" fill="#fff"/></svg>