<svg id="Layer_1" data-name="Layer 1" xmlns="http://www.w3.org/2000/svg" viewBox="0 0 48 48"><defs><style>.cls-2{fill:none}.cls-3{fill:#fff}</style></defs><ellipse cx="31.02" cy="17.49" rx="16.98" ry="17.34" fill="#7fd7cf" opacity=".32"/><path class="cls-2" d="M33 28.31v-.45l.45-.05a1.14 1.14 0 000-2.24 1.13 1.13 0 01-.07 2.22l-.44.05v.45c0 2.92-2.66 4-4.33 4.34a9.27 9.27 0 01-1-.27c.35.11.71.2 1.06.28 1.7-.36 4.38-1.41 4.33-4.33zM33 25v.45-.44A4.61 4.61 0 0031.94 22a4 4 0 00-1.86-1.23 4 4 0 011.8 1.23A4.61 4.61 0 0133 25zM39 21v.45V21a4.64 4.64 0 00-1.08-3.07 4.07 4.07 0 00-1.87-1.23 4.09 4.09 0 011.81 1.2A4.68 4.68 0 0139 21zM39 24.23v-.45l.44-.05a1.14 1.14 0 000-2.24 1.13 1.13 0 01-.06 2.22l-.44.05v.45c0 2.92-2.65 4-4.33 4.34l-.24-.06.3.07c1.7-.36 4.38-1.41 4.33-4.33zM13.38 32.65l.27-.07h.12a8.44 8.44 0 001-.32.73.73 0 00-.25-.3 2.46 2.46 0 010-4.21.64.64 0 00.33-.44 6.89 6.89 0 011.48-3.21 6.77 6.77 0 011-.95 4.35 4.35 0 00-.7-1.13 4.07 4.07 0 00-1.87-1.23A4.06 4.06 0 0116.57 22a4.35 4.35 0 01.7 1.13 6.28 6.28 0 00-1 .95 6.91 6.91 0 00-1.48 3.2.66.66 0 01-.33.45 2.43 2.43 0 00-1.22 2.12 2.46 2.46 0 001.17 2.09.61.61 0 01.25.3 7.72 7.72 0 01-1 .32h-.12l-.27.07-.27-.08c-.32-.08-.64-.17-1-.28a9 9 0 001 .3zM26.64 31.73v-.45l.45-.05a1.4 1.4 0 00.42-2.65 1.4 1.4 0 01-.51 2.63l-.44.05v.45c0 3.41-3.14 4.66-5.2 5.12a.57.57 0 01-.26 0 12.86 12.86 0 01-1.41-.38 11.93 11.93 0 001.47.4.57.57 0 00.26 0c2.07-.46 5.25-1.71 5.22-5.12z"/><path class="cls-2" d="M13.35 19.54a5.3 5.3 0 014 1.79 5.06 5.06 0 01.79 1.22 7.46 7.46 0 013.08-1h.05a6.78 6.78 0 012.86.65c.12-.17.22-.35.36-.52a6 6 0 014.15-2.17 5.85 5.85 0 01.81.06 5.82 5.82 0 015.18-4.14 5.28 5.28 0 014 1.79A5.54 5.54 0 0140 20.6a2.15 2.15 0 010 4 4.76 4.76 0 01-2.29 3.79 6.53 6.53 0 00.71 1.79 15.94 15.94 0 005.08-11.67A15.67 15.67 0 0028 2.69a15.67 15.67 0 00-15.46 15.82c0 .39 0 .77.05 1.15a5.85 5.85 0 01.76-.12z"/><path class="cls-2" d="M26.57 27.92v.45h.07v-.44a5.4 5.4 0 00-1.33-3.64A5.16 5.16 0 0023 22.83a5.08 5.08 0 012.26 1.45 5.3 5.3 0 011.31 3.64z"/><rect class="cls-2" x="8.76" y="27.82" height=".14" transform="rotate(-68.84 8.765 27.88)"/><path class="cls-2" d="M11.47 33.11zM15.37 31.23l.31.08zM40.65 33.6a7.25 7.25 0 01-2.37-1.85 7.54 7.54 0 01-1.46-2.84 7.37 7.37 0 001.45 2.8 7.15 7.15 0 002.37 1.85.43.43 0 01.23.33.42.42 0 01-.12.37 9.29 9.29 0 01-5.56 2.5 9.29 9.29 0 005.58-2.5.43.43 0 00.13-.37.45.45 0 00-.25-.29zM34.66 37.65a7.13 7.13 0 01-2.38-1.84A7.3 7.3 0 0130.81 33a7.42 7.42 0 001.46 2.78 7.13 7.13 0 002.38 1.84.45.45 0 01.24.33.43.43 0 01-.13.37 9.19 9.19 0 01-6.4 2.57c-.28 0-.54 0-.79-.06.27 0 .54.06.83.07a9.19 9.19 0 006.4-2.57.4.4 0 00.1-.33.45.45 0 00-.24-.35zM28.56 42.67a8.53 8.53 0 01-2.85-2.2 9.26 9.26 0 01-1.77-3.41h-.05a9.09 9.09 0 001.76 3.36 8.5 8.5 0 002.84 2.21.63.63 0 01.35.48.61.61 0 01-.18.55 11.24 11.24 0 01-7.85 3.15 10.32 10.32 0 01-3.32-.61 10.43 10.43 0 003.39.63 11.23 11.23 0 007.84-3.15.59.59 0 00.18-.55.64.64 0 00-.34-.46zM18.86 37.19a11 11 0 001.06.37 10.13 10.13 0 01-1.06-.37zM15.71 40.22A9.16 9.16 0 0018 36.77a5.58 5.58 0 01-3-3.56h-.05a5.58 5.58 0 003 3.52 9.23 9.23 0 01-2.24 3.46c-.18.17-.37.33-.55.48a8.82 8.82 0 01-2.16.23 8.65 8.65 0 01-2.7-.5 8.43 8.43 0 002.77.52 8.79 8.79 0 002.1-.22c.17-.15.36-.31.54-.48z"/><path class="cls-3" d="M8.73 35.49a7.58 7.58 0 001.83-2.81A4.81 4.81 0 018 29.43c-.17 0-.33.1-.51.13h-.2A10.85 10.85 0 015.48 29a8.57 8.57 0 01-2.05 3.1 9.37 9.37 0 01-2.2 1.56A.44.44 0 001 34a.43.43 0 00.14.38 9.12 9.12 0 005.74 2.42 8.39 8.39 0 001.85-1.31zM15.1 40.68c.18-.15.37-.31.55-.48a9.23 9.23 0 002.24-3.46 5.58 5.58 0 01-3-3.52c-.15.05-.28.12-.44.16-.31.1-.64.19-1 .27h-.16a9.93 9.93 0 01-1-.26c-.28-.08-.55-.18-.81-.28a8.52 8.52 0 01-2 3.1c-.18.17-.36.32-.53.46a9.44 9.44 0 01-1.68 1.1.46.46 0 00-.07.07.37.37 0 00-.2.26.42.42 0 00.13.38 9.81 9.81 0 003.16 1.92 8.65 8.65 0 002.7.5 8.82 8.82 0 002.11-.22zM39 24.21v-.45l.44-.05a1.13 1.13 0 00.06-2.22l-.5-.06V21a4.68 4.68 0 00-1.08-3.08 4.09 4.09 0 00-1.81-1.2 4.37 4.37 0 00-1.32-.22 5 5 0 00-3.41 1.79 4.77 4.77 0 00-.84 1.58 5.17 5.17 0 012.25 1.5A5.6 5.6 0 0134 24.68a2.13 2.13 0 011.39 2 2.1 2.1 0 01-1 1.8l.24.06c1.68-.36 4.37-1.41 4.37-4.33zM28.66 43.68a.61.61 0 00.18-.55.63.63 0 00-.35-.48 8.5 8.5 0 01-2.84-2.21 9.09 9.09 0 01-1.76-3.36 10.77 10.77 0 01-2.48.79h-.2c-.45-.09-.88-.2-1.29-.32a11 11 0 01-1.06-.37 10.16 10.16 0 01-2.46 3.75 11.47 11.47 0 01-2.65 1.88.65.65 0 00-.13 1 11.7 11.7 0 003.87 2.36 10.32 10.32 0 003.32.61 11.24 11.24 0 007.85-3.1zM34.71 38.33a.43.43 0 00.13-.37.45.45 0 00-.24-.33 7.13 7.13 0 01-2.38-1.84A7.42 7.42 0 0130.76 33a9.39 9.39 0 01-2 .64h-.19a11.36 11.36 0 01-1.19-.32 5.67 5.67 0 01-2.58 3.25 8.07 8.07 0 001.63 3.24 7.78 7.78 0 001.05 1c.25 0 .51 0 .79.06a9.19 9.19 0 006.44-2.54z"/><path class="cls-3" d="M33 28.29v-.45l.44-.05a1.13 1.13 0 00.07-2.22l-.51-.06V25a4.61 4.61 0 00-1.12-3 4 4 0 00-1.8-1.21 4.33 4.33 0 00-1.32-.22h-.05a5 5 0 00-3.41 1.79c-.11.14-.18.28-.27.41a6 6 0 012.58 4.49.52.52 0 00.33.44 2.41 2.41 0 011.36 2.17A2.38 2.38 0 0127.94 32a.62.62 0 00-.3.36 9.27 9.27 0 001 .27c1.67-.37 4.36-1.42 4.36-4.34zM40.82 33.91a.43.43 0 00-.23-.33 7.15 7.15 0 01-2.37-1.85 7.37 7.37 0 01-1.45-2.8 9.69 9.69 0 01-2 .63h-.2c-.24-.05-.46-.12-.69-.18a4.82 4.82 0 01-2.2 3.11 6.46 6.46 0 001.34 2.67 6.07 6.07 0 002 1.58 9.29 9.29 0 005.56-2.5.42.42 0 00.24-.33z"/><path class="cls-3" d="M21.37 36.83c2.06-.46 5.24-1.71 5.2-5.12v-.45l.44-.05a1.4 1.4 0 00.49-2.63 1.47 1.47 0 00-.42-.13l-.45-.06h-.07v-.45a5.3 5.3 0 00-1.33-3.64A5.08 5.08 0 0023 22.83a5.64 5.64 0 00-1.59-.25h-.07a6.2 6.2 0 00-4.21 2.13A6 6 0 0015.77 28v.35l-.35.09a1.45 1.45 0 000 2.79l.34.09h.06v.39c0 2.66 1.87 4 3.93 4.72a12.86 12.86 0 001.41.38.57.57 0 00.21.02zM7.39 28.57l.28-.07a2.17 2.17 0 01.26-3.79 6.14 6.14 0 011.28-3 5.79 5.79 0 012.4-1.71 4.45 4.45 0 00-1-2 4.29 4.29 0 00-3.2-1.45A5 5 0 004 18.25 5.35 5.35 0 002.89 21v.34l-.34.09a1.19 1.19 0 000 2.27l.37.1v.39C2.87 27 5.3 28.14 7.39 28.57z"/><path class="cls-3" d="M13.32 32.63l.27-.07h.12a7.72 7.72 0 001-.32.61.61 0 00-.25-.3 2.46 2.46 0 01-1.17-2.09 2.43 2.43 0 011.22-2.12.66.66 0 00.33-.45 6.91 6.91 0 011.48-3.2 6.28 6.28 0 011-.95 4.35 4.35 0 00-.7-1.13 4.06 4.06 0 00-1.81-1.21 4.29 4.29 0 00-1.32-.22c-.13 0-.35 0-.62.09l-.56.16c-.16.06-.33.12-.5.2A4.75 4.75 0 0010 22.33a5.18 5.18 0 00-1.1 2.79v.35l-.34.08a1.17 1.17 0 00-.84 1.14 1.16 1.16 0 00.84 1.13l.18.05h.19v.7a4.43 4.43 0 00.06.51 3.89 3.89 0 002.13 2.72 7.92 7.92 0 00.94.42c.31.11.63.2 1 .28z"/><path d="M41.09 32.7a6.09 6.09 0 01-2-1.59L39 31a16.9 16.9 0 005.5-12.49A16.67 16.67 0 0028 1.69a16.63 16.63 0 00-16.41 15.83c-.07-.09-.12-.18-.2-.27a5.32 5.32 0 00-4-1.79 6.06 6.06 0 00-4.15 2.16 6.18 6.18 0 00-1.27 3 2.19 2.19 0 000 3.94 4.76 4.76 0 002.65 4 7.41 7.41 0 01-1.82 2.81 8.51 8.51 0 01-2 1.39 1.47 1.47 0 00-.8 1.13 1.43 1.43 0 00.46 1.25 10.26 10.26 0 005.59 2.62 1.4 1.4 0 00.4 1.46 10.15 10.15 0 006.55 2.7h.29a1.65 1.65 0 00-.86 1.25A1.62 1.62 0 0013 44.6a12.11 12.11 0 007.91 3.25h.23a12.18 12.18 0 008.31-3.42 1.62 1.62 0 00-.24-2.55 10.23 10.23 0 006.29-2.79 1.44 1.44 0 00.44-1.26v-.09A10.38 10.38 0 0041.43 35a1.4 1.4 0 00.44-1.25 1.42 1.42 0 00-.78-1.05zM28 2.69a15.67 15.67 0 0115.5 15.82 15.94 15.94 0 01-5.07 11.69 6.53 6.53 0 01-.71-1.79A4.76 4.76 0 0040 24.62a2.15 2.15 0 000-4 5.54 5.54 0 00-1.32-3.35 5.28 5.28 0 00-4-1.79 5.82 5.82 0 00-5.18 4.14 5.85 5.85 0 00-.81-.06 6 6 0 00-4.15 2.17c-.14.17-.24.35-.36.52a6.78 6.78 0 00-2.86-.65h-.05a7.46 7.46 0 00-3.08 1 5.06 5.06 0 00-.79-1.22 5.3 5.3 0 00-4-1.79 5.85 5.85 0 00-.76.12c0-.38-.05-.76-.05-1.15A15.67 15.67 0 0128 2.69zm-6.57 34.16a.57.57 0 01-.26 0 11.93 11.93 0 01-1.47-.4c-2.06-.7-3.95-2.06-3.93-4.72v-.39h-.06l-.31-.08a1.45 1.45 0 010-2.79l.35-.09v-.35a6 6 0 011.34-3.29 6.2 6.2 0 014.21-2.13h.07a5.64 5.64 0 011.59.25 5.16 5.16 0 012.33 1.47 5.4 5.4 0 011.33 3.64v.44l.45.06a1.47 1.47 0 01.42.13 1.4 1.4 0 01-.42 2.65l-.45.05v.45c.05 3.39-3.13 4.64-5.19 5.1zM1 34a.44.44 0 01.23-.33 9.37 9.37 0 002.2-1.56A8.57 8.57 0 005.48 29a10.85 10.85 0 001.82.54h.2c.18 0 .34-.09.51-.13a4.81 4.81 0 002.55 3.25 7.58 7.58 0 01-1.83 2.81 8.39 8.39 0 01-1.85 1.33 9.12 9.12 0 01-5.74-2.4A.43.43 0 011 34zm1.53-10.26a1.19 1.19 0 010-2.27l.34-.09v-.34A5.35 5.35 0 014 18.25a5 5 0 013.4-1.79 4.29 4.29 0 013.2 1.45 4.45 4.45 0 011 2 5.79 5.79 0 00-2.4 1.76 6.14 6.14 0 00-1.28 3 2.17 2.17 0 00-.26 3.79l-.28.07C5.3 28.14 2.87 27 2.9 24.23v-.39zm8.56 8.11A3.89 3.89 0 019 29.13a4.43 4.43 0 01-.06-.51v-.7H8.7l-.18-.05a1.16 1.16 0 01-.84-1.13 1.17 1.17 0 01.84-1.14l.34-.08v-.35A5.18 5.18 0 0110 22.33 4.75 4.75 0 0111.72 21c.17-.08.34-.14.5-.2l.56-.16c.27-.05.49-.08.62-.09a4.29 4.29 0 011.32.22A4.07 4.07 0 0116.63 22a4.35 4.35 0 01.7 1.13 6.77 6.77 0 00-1 .95 6.89 6.89 0 00-1.48 3.21.64.64 0 01-.33.44 2.46 2.46 0 000 4.21.73.73 0 01.25.3 8.44 8.44 0 01-1 .32h-.12l-.27.07-.38-.06a9 9 0 01-1-.3 7.92 7.92 0 01-.91-.42zm17.61.8c-.35-.08-.71-.17-1.06-.28a.62.62 0 01.3-.36 2.38 2.38 0 001.36-2.16 2.41 2.41 0 00-1.36-2.17.52.52 0 01-.33-.44 6 6 0 00-2.61-4.5c.09-.13.16-.27.27-.41a5 5 0 013.41-1.79h.05a4.33 4.33 0 011.32.22A4 4 0 0131.94 22 4.61 4.61 0 0133 25.06v.44l.45.06a1.14 1.14 0 010 2.24l-.45.05v.45c.05 2.93-2.63 3.98-4.3 4.35zm6-4.08l-.3-.07a2.1 2.1 0 001-1.8 2.13 2.13 0 00-1.39-2 5.6 5.6 0 00-1.32-3.35 5.17 5.17 0 00-2.25-1.5 4.77 4.77 0 01.84-1.58 5 5 0 013.41-1.79 4.37 4.37 0 011.32.22 4.07 4.07 0 011.87 1.23A4.64 4.64 0 0139 21v.44l.45.06a1.14 1.14 0 010 2.24l-.44.05v.45c.04 2.91-2.64 3.96-4.32 4.33zM13.06 40.92a8.43 8.43 0 01-2.77-.52 9.81 9.81 0 01-3.16-1.92.42.42 0 01-.13-.38.37.37 0 01.15-.26.46.46 0 01.07-.07 9.44 9.44 0 001.68-1.1c.17-.14.35-.29.53-.46a8.52 8.52 0 002-3.1c.26.1.53.2.81.28a9.93 9.93 0 001 .26h.16c.34-.08.67-.17 1-.27.16 0 .29-.11.44-.16h.05a5.58 5.58 0 003 3.56 9.16 9.16 0 01-2.24 3.45c-.18.17-.37.33-.55.48a8.79 8.79 0 01-2.04.21zm15.66 2.78a11.23 11.23 0 01-7.84 3.15 10.43 10.43 0 01-3.39-.63 11.7 11.7 0 01-3.87-2.36.65.65 0 01.13-1 11.47 11.47 0 002.65-1.88 10.16 10.16 0 002.46-3.75 10.13 10.13 0 001.06.37c.41.12.84.23 1.29.32h.2a10.77 10.77 0 002.48-.79h.05a9.26 9.26 0 001.77 3.41 8.53 8.53 0 002.85 2.2.64.64 0 01.34.48.59.59 0 01-.18.48zm6.05-5.35a9.19 9.19 0 01-6.4 2.57c-.29 0-.56 0-.83-.07a7.78 7.78 0 01-1.05-1 8.07 8.07 0 01-1.63-3.24 5.67 5.67 0 002.58-3.25 11.36 11.36 0 001.19.32h.19a9.39 9.39 0 002-.64 7.3 7.3 0 001.47 2.82 7.13 7.13 0 002.38 1.84.45.45 0 01.24.33.4.4 0 01-.14.32zm6-4.05a9.29 9.29 0 01-5.58 2.5 6.07 6.07 0 01-2-1.58 6.46 6.46 0 01-1.34-2.67 4.82 4.82 0 002.2-3.11c.23.06.45.13.69.18h.2a9.69 9.69 0 002-.63 7.54 7.54 0 001.46 2.84 7.25 7.25 0 002.37 1.85.45.45 0 01.24.33.43.43 0 01-.25.29z" fill="#024263"/></svg>